<svg id="visual" viewBox="0 0 1000 450" width="1000" height="450" xmlns="http://www.w3.org/2000/svg" xmlns:xlink="http://www.w3.org/1999/xlink" version="1.1"><path d="M0 229L23.8 227.3C47.7 225.7 95.3 222.3 143 206.2C190.7 190 238.3 161 286 176.5C333.7 192 381.3 252 428.8 262.3C476.3 272.7 523.7 233.3 571.2 231.5C618.7 229.7 666.3 265.3 714 288.2C761.7 311 809.3 321 857 304.2C904.7 287.3 952.3 243.7 976.2 221.8L1000 200L1000 451L976.2 451C952.3 451 904.7 451 857 451C809.3 451 761.7 451 714 451C666.3 451 618.7 451 571.2 451C523.7 451 476.3 451 428.8 451C381.3 451 333.7 451 286 451C238.3 451 190.7 451 143 451C95.3 451 47.7 451 23.8 451L0 451Z" fill="currentColor" stroke-linecap="round" stroke-linejoin="miter"></path></svg>