<svg xmlns="http://www.w3.org/2000/svg" xmlns:xlink="http://www.w3.org/1999/xlink" id="visual" viewBox="0 0 1800 600" width="1800" height="600" version="1.1">
  <path fill="#E6E4E1" d="M0 257L37.5 264.3C75 271.7 150 286.3 225 289.3C300 292.3 375 283.7 450 283C525 282.3 600 289.7 675 299.2C750 308.7 825 320.3 900 314.3C975 308.3 1050 284.7 1125 275.5C1200 266.3 1275 271.7 1350 281.5C1425 291.3 1500 305.7 1575 304.7C1650 303.7 1725 287.3 1762.5 279.2L1800 271L1800 601L1762.5 601C1725 601 1650 601 1575 601C1500 601 1425 601 1350 601C1275 601 1200 601 1125 601C1050 601 975 601 900 601C825 601 750 601 675 601C600 601 525 601 450 601C375 601 300 601 225 601C150 601 75 601 37.5 601L0 601Z" stroke-linecap="round" stroke-linejoin="miter"/>
<script xmlns=""/></svg>