<svg id="visual" viewBox="0 0 1800 600" width="1800" height="600" xmlns="http://www.w3.org/2000/svg" xmlns:xlink="http://www.w3.org/1999/xlink" version="1.1"><path d="M0 176L42.8 199.7C85.7 223.3 171.3 270.7 257 312C342.7 353.3 428.3 388.7 514 367C599.7 345.3 685.3 266.7 771.2 262.5C857 258.3 943 328.7 1028.8 349.5C1114.7 370.3 1200.3 341.7 1286 309C1371.7 276.3 1457.3 239.7 1543 218C1628.7 196.3 1714.3 189.7 1757.2 186.3L1800 183L1800 601L1757.2 601C1714.3 601 1628.7 601 1543 601C1457.3 601 1371.7 601 1286 601C1200.3 601 1114.7 601 1028.8 601C943 601 857 601 771.2 601C685.3 601 599.7 601 514 601C428.3 601 342.7 601 257 601C171.3 601 85.7 601 42.8 601L0 601Z" fill="#333333" stroke-linecap="round" stroke-linejoin="miter"></path></svg>